<?xml version="1.0" encoding="UTF-8"?>
<svg width="356px" height="355px" viewBox="0 0 356 355" version="1.1" xmlns="http://www.w3.org/2000/svg" xmlns:xlink="http://www.w3.org/1999/xlink">
    <!-- Generator: Sketch 63.1 (92452) - https://sketch.com -->
    <title>brand_vt_purple@2x</title>
    <desc>Created with Sketch.</desc>
    <g id="Page-1" stroke="none" stroke-width="1" fill="none" fill-rule="evenodd">
        <g id="brand_vt_purple" fill="#6A1AE8">
            <path d="M109.8586,109.1234 C115.6876,130.1024 118.9126,153.1174 118.9126,177.2644 C118.9126,201.4114 115.6876,224.4264 109.8586,245.4054 C130.8376,239.5764 153.8526,236.3524 178.0006,236.3524 C202.1466,236.3524 225.1626,239.5764 246.1406,245.4054 C240.3116,224.4264 237.0876,201.4114 237.0876,177.2644 C237.0876,153.1174 240.3116,130.1024 246.1406,109.1234 C225.1626,114.9524 202.1466,118.1754 178.0006,118.1754 C153.8526,118.1754 130.8376,114.9524 109.8586,109.1234" id="Fill-35"></path>
            <path d="M246.1408,109.1234 C310.2178,91.3194 355.2638,49.1684 355.2638,0.0004 C306.0948,0.0004 263.9448,45.0464 246.1408,109.1234" id="Fill-37"></path>
            <path d="M246.1408,245.4051 C263.9458,309.4821 306.0948,354.5281 355.2638,354.5281 C355.2638,305.3591 310.2178,263.2091 246.1408,245.4051" id="Fill-39"></path>
            <path d="M109.8586,109.1234 C92.0546,45.0464 49.9046,0.0004 0.7366,0.0004 C0.7366,49.1684 45.7826,91.3194 109.8586,109.1234" id="Fill-41"></path>
            <path d="M109.8586,245.4051 C45.7826,263.2091 0.7366,305.3591 0.7366,354.5281 C49.9046,354.5281 92.0546,309.4821 109.8586,245.4051" id="Fill-43"></path>
        </g>
    </g>
</svg>