<?xml version="1.0" encoding="UTF-8"?>
<svg width="164px" height="66px" viewBox="0 0 164 66" version="1.1" xmlns="http://www.w3.org/2000/svg" xmlns:xlink="http://www.w3.org/1999/xlink">
    <defs></defs>
    <g id="Page-1" stroke="none" stroke-width="1" fill="none" fill-rule="evenodd">
        <g id="full-copy-5">
            <path d="M67.7704595,36.2755344 L64.5234934,36.2755344 L64.5234934,42.7382423 L61,42.7382423 L61,24.2527316 L67.7615393,24.2527316 C69.277987,24.2527316 70.505994,24.5084693 71.4455969,25.0199525 C72.3851999,25.5314357 73.0735379,26.2399796 73.5106317,27.1456057 C73.9477255,28.0512318 74.1662691,29.0937392 74.1662691,30.2731591 C74.1662691,32.0723764 73.6578207,33.5225598 72.6409086,34.623753 C71.6239966,35.7249461 70.0005298,36.2755344 67.7704595,36.2755344 Z M64.5234934,27.2494062 L64.5234934,33.3149644 L67.7704595,33.3149644 C68.8468401,33.3149644 69.6005925,33.0216181 70.0317394,32.4349169 C70.4628864,31.8482156 70.6784566,31.1276369 70.6784566,30.2731591 C70.6784566,29.4186814 70.4613997,28.7011114 70.0272793,28.1204276 C69.593159,27.5397437 68.8379198,27.2494062 67.7615393,27.2494062 L64.5234934,27.2494062 Z M77.1277876,27.7187648 C76.5628364,27.7187648 76.0900686,27.5367397 75.70947,27.1726841 C75.3288713,26.8086284 75.1385748,26.3708656 75.1385748,25.8593824 C75.1385748,25.3659516 75.3288713,24.9327018 75.70947,24.55962 C76.0900686,24.1865381 76.5628364,24 77.1277876,24 C77.6927387,24 78.1595598,24.1865381 78.5282647,24.55962 C78.8969697,24.9327018 79.0813194,25.3659516 79.0813194,25.8593824 C79.0813194,26.3708656 78.8969697,26.8086284 78.5282647,27.1726841 C78.1595598,27.5367397 77.6927387,27.7187648 77.1277876,27.7187648 Z M78.8493932,28.8741093 L78.8493932,42.7382423 L75.3883415,42.7382423 L75.3883415,28.8741093 L78.8493932,28.8741093 Z M84.1926149,28.8741093 L86.574318,33.3871734 L89.0095426,28.8741093 L92.6043979,28.8741093 L88.7330152,35.8061758 L92.7025205,42.7382423 L89.1076652,42.7382423 L86.574318,38.3425178 L84.0677316,42.7382423 L80.4550358,42.7382423 L84.3977803,35.8061758 L80.5799191,28.8741093 L84.1926149,28.8741093 Z M99.6513847,43 C98.2776614,43 97.0957419,42.7156798 96.1055907,42.1470309 C95.1154395,41.578382 94.3527669,40.7705516 93.81755,39.7235154 C93.2823332,38.6764793 93.0147288,37.4308861 93.0147288,35.9866983 C93.0147288,34.5786153 93.2704397,33.3255003 93.7818691,32.2273159 C94.2932985,31.1291315 95.0336708,30.2656405 96.003008,29.6368171 C96.9723452,29.0079937 98.1408845,28.6935867 99.5086609,28.6935867 C100.668297,28.6935867 101.710468,28.9402984 102.635204,29.4337292 C103.55994,29.92716 104.291392,30.6672951 104.829582,31.6541568 C105.367772,32.6410184 105.636863,33.8745769 105.636863,35.3548694 L105.636863,36.8261283 L96.3598174,36.8261283 C96.4728077,37.855112 96.798393,38.6629424 97.3365833,39.2496437 C97.8747736,39.836345 98.6374462,40.1296912 99.624624,40.1296912 C100.451237,40.1296912 101.072674,39.9386401 101.488953,39.5565321 C101.905233,39.1744241 102.205545,38.7246265 102.389897,38.2071259 L105.49414,39.0555819 C105.327628,39.6934315 105.010962,40.3132195 104.544134,40.9149644 C104.077306,41.5167093 103.441003,42.0146457 102.635204,42.4087886 C101.829405,42.8029315 100.834809,43 99.6513847,43 Z M99.4819002,31.5368171 C98.6850218,31.5368171 98.0279043,31.7895462 97.510528,32.2950119 C96.9931517,32.8004776 96.6422925,33.5075172 96.45794,34.416152 L102.354216,34.416152 C102.354216,33.597779 102.102966,32.9133044 101.600456,32.3627078 C101.097947,31.8121113 100.391769,31.5368171 99.4819002,31.5368171 Z M110.810601,24.2527316 L110.810601,42.7382423 L107.349549,42.7382423 L107.349549,24.2527316 L110.810601,24.2527316 Z M114.030806,42.7382423 L114.030806,31.4736342 L112.184317,31.4736342 L112.184317,28.8741093 L114.030806,28.8741093 L114.030806,28.3144893 C114.030806,26.8582667 114.442619,25.7751421 115.266259,25.0650831 C116.089898,24.3550242 117.108281,24 118.32144,24 C118.910178,24 119.424573,24.0466345 119.864641,24.139905 C120.304708,24.2331754 120.634753,24.3159141 120.854787,24.3881235 L120.194689,27.0598575 C120.040071,27.0117179 119.863155,26.968092 119.663935,26.9289786 C119.464716,26.8898652 119.249145,26.8703088 119.017218,26.8703088 C118.000306,26.8703088 117.491858,27.4058537 117.491858,28.4769596 L117.491858,28.8741093 L120.194689,28.8741093 L120.194689,31.4736342 L117.491858,31.4736342 L117.491858,42.7382423 L114.030806,42.7382423 Z M127.366559,43 C125.992836,43 124.810917,42.7156798 123.820765,42.1470309 C122.830614,41.578382 122.067942,40.7705516 121.532725,39.7235154 C120.997508,38.6764793 120.729904,37.4308861 120.729904,35.9866983 C120.729904,34.5786153 120.985614,33.3255003 121.497044,32.2273159 C122.008473,31.1291315 122.748846,30.2656405 123.718183,29.6368171 C124.68752,29.0079937 125.856059,28.6935867 127.223836,28.6935867 C128.383472,28.6935867 129.425643,28.9402984 130.350379,29.4337292 C131.275114,29.92716 132.006566,30.6672951 132.544757,31.6541568 C133.082947,32.6410184 133.352038,33.8745769 133.352038,35.3548694 L133.352038,36.8261283 L124.074992,36.8261283 C124.187982,37.855112 124.513568,38.6629424 125.051758,39.2496437 C125.589948,39.836345 126.352621,40.1296912 127.339799,40.1296912 C128.166411,40.1296912 128.787848,39.9386401 129.204128,39.5565321 C129.620408,39.1744241 129.92072,38.7246265 130.105072,38.2071259 L133.209314,39.0555819 C133.042802,39.6934315 132.726137,40.3132195 132.259309,40.9149644 C131.792481,41.5167093 131.156177,42.0146457 130.350379,42.4087886 C129.54458,42.8029315 128.549983,43 127.366559,43 Z M127.197075,31.5368171 C126.400197,31.5368171 125.743079,31.7895462 125.225703,32.2950119 C124.708326,32.8004776 124.357467,33.5075172 124.173115,34.416152 L130.069391,34.416152 C130.069391,33.597779 129.81814,32.9133044 129.315631,32.3627078 C128.813122,31.8121113 128.106944,31.5368171 127.197075,31.5368171 Z M147,42.7382423 L143.583549,42.7382423 L143.583549,41.0954869 L143.396224,41.0954869 C143.164297,41.5768829 142.770324,42.011637 142.214293,42.3997625 C141.658262,42.7878879 140.928297,42.9819477 140.024375,42.9819477 C139.001516,42.9819477 138.078281,42.7066536 137.254642,42.156057 C136.431002,41.6054604 135.776858,40.79763 135.29219,39.7325416 C134.807521,38.6674531 134.56519,37.3616863 134.56519,35.8152019 C134.56519,34.2566826 134.813468,32.9479071 135.31003,31.8888361 C135.806592,30.8297651 136.469657,30.0324651 137.299243,29.4969121 C138.128829,28.9613592 139.040171,28.6935867 140.033295,28.6935867 C140.949111,28.6935867 141.680563,28.8906552 142.227673,29.2847981 C142.774784,29.678941 143.164297,30.1136952 143.396224,30.5890736 L143.538948,30.5890736 L143.538948,24.2527316 L147,24.2527316 L147,42.7382423 Z M137.865678,35.8061758 C137.865678,37.0999273 138.122875,38.143939 138.637278,38.9382423 C139.151681,39.7325455 139.917327,40.1296912 140.934239,40.1296912 C141.641915,40.1296912 142.211318,39.9386401 142.642464,39.5565321 C143.073611,39.1744241 143.385817,38.6554269 143.579089,37.9995249 C143.772362,37.343623 143.868997,36.6125139 143.868997,35.8061758 C143.868997,34.5846336 143.644507,33.5677 143.195519,32.7553444 C142.746532,31.9429888 141.992779,31.5368171 140.934239,31.5368171 C139.91138,31.5368171 139.144248,31.9264411 138.632818,32.7057007 C138.121389,33.4849603 137.865678,34.5184417 137.865678,35.8061758 Z" id="Pixelfed" fill="#393D41"></path>
            <g id="photos" transform="translate(13.000000, 13.000000)" fill-rule="nonzero">
                <g id="Group-3">
                    <g id="Group-2">
                        <path d="M17.4701673,18.7053158 C17.5106419,18.9879631 17.5389741,19.2739833 17.5389741,19.5674239 C17.5389741,22.9065747 14.8069416,25.6386072 11.4677907,25.6386072 L6.07118333,25.6386072 C2.7320325,25.6386072 0,22.9065747 0,19.5674239 C0,16.5534186 2.22812428,14.0412979 5.11733297,13.579888 C5.11733297,13.579888 5.11800754,13.5805625 5.11800754,13.5805625 C5.11800754,13.579888 5.11733297,13.5792134 5.11733297,13.5792134 C5.42898705,13.5292948 5.74603773,13.4962405 6.07118333,13.4962405 L11.4677907,13.4962405 C14.513501,13.4962405 17.0472082,15.7715851 17.4701673,18.7053158 Z" id="Combined-Shape" fill="#BF3F8A"></path>
                        <path d="M25.5583327,5.11328551 C25.0928753,2.22812428 22.5827782,0.00404745555 19.5714713,0.00404745555 C16.5601644,0.00404745555 14.0500674,2.22812428 13.58461,5.11328551 C13.8429726,5.29946847 14.0925657,5.50184125 14.3246198,5.73389536 L18.1406958,9.54997137 C18.8092005,10.2184761 19.2820782,11.0097537 19.5714713,11.8509499 C20.0153423,13.1393899 20.0153423,14.5465553 19.5714713,15.8349953 C19.3717968,16.4137814 19.0830783,16.9662591 18.7046413,17.4735402 C18.9886377,17.5146893 19.2766816,17.5436961 19.5714713,17.5436961 C19.866261,17.5436961 20.1543049,17.5153639 20.4383014,17.4735402 C21.0649824,17.3824724 21.6599584,17.1962895 22.2104123,16.9278083 C23.4354422,16.3308086 24.4304417,15.3358091 25.0274414,14.1107792 C25.4173463,13.3107322 25.6426546,12.4175936 25.6426546,11.4718382 L25.6426546,6.07523078 C25.6426546,5.74738688 25.6089259,5.42763789 25.5583327,5.11328551 Z" id="Shape" fill="#ED8611"></path>
                        <path d="M24.8183229,33.4002778 L21.0022469,29.5842018 C20.3337421,28.915697 19.8608644,28.1244195 19.5714713,27.2832233 C19.1276004,25.9947833 19.1276004,24.5876179 19.5714713,23.2991779 C19.7711458,22.7203917 20.0598643,22.1679141 20.4383014,21.660633 C20.1543049,21.6194838 19.866261,21.5904771 19.5714713,21.5904771 C19.2766816,21.5904771 18.9886377,21.6188093 18.7046413,21.660633 C18.0779602,21.7517007 17.4829843,21.9378837 16.9325303,22.2063649 C15.7075004,22.8033646 14.7125009,23.7983641 14.1155012,25.0233939 C13.7255964,25.823441 13.500288,26.7165795 13.500288,27.662335 L13.500288,33.0589424 C13.500288,33.3867863 13.5340168,33.7065353 13.58461,34.0208876 C14.0500674,36.9060489 16.5601644,39.1301257 19.5714713,39.1301257 C22.5827782,39.1301257 25.0928753,36.9060489 25.5583327,34.0208876 C25.2999701,33.8340301 25.050377,33.6316573 24.8183229,33.4002778 Z" id="Shape" fill="#2E86DD"></path>
                        <path d="M34.0249351,13.5805625 C33.8387521,13.8389251 33.6363794,14.0885182 33.4043252,14.3205723 L29.5882492,18.1366483 C28.9197445,18.8051531 28.1284669,19.2773562 27.2872708,19.5674239 C25.9988307,20.0112948 24.5916654,20.0112948 23.3032253,19.5674239 C22.7244392,19.3677494 22.1719615,19.0790309 21.6646804,18.7005938 C21.6235313,18.9845903 21.5951991,19.2726342 21.5951991,19.5674239 C21.5951991,19.8622135 21.6235313,20.1502575 21.6646804,20.4342539 C21.7557482,21.060935 21.9419311,21.6559109 22.2104123,22.2063649 C22.807412,23.4313948 23.8024115,24.4263943 25.0274414,25.0233939 C25.8274885,25.4132988 26.720627,25.6386072 27.6663824,25.6386072 L33.0629898,25.6386072 C33.3908337,25.6386072 33.7105827,25.6048784 34.0249351,25.5542852 C36.9100963,25.0888278 39.1341732,22.5787308 39.1341732,19.5674239 C39.1341732,16.5561169 36.9100963,14.0453453 34.0249351,13.5805625 Z" id="Shape" fill="#9EE85D"></path>
                        <path d="M33.4043252,5.73389536 C31.2753636,3.60493374 27.9274433,3.40256097 25.5583327,5.11328551 C25.6089259,5.42763789 25.6426546,5.74738688 25.6426546,6.07523078 L25.6426546,11.4718382 C25.6426546,12.4175936 25.4173463,13.3107322 25.0274414,14.1107792 C24.4304417,15.3358091 23.4354422,16.3308086 22.2104123,16.9278083 C21.6599584,17.1962895 21.0649824,17.3824724 20.4383014,17.4735402 C20.6103182,17.7035706 20.7938029,17.9275298 21.0022469,18.1359738 C21.2106908,18.3444177 21.43465,18.5279024 21.6646804,18.6999192 C22.1719615,19.0783563 22.7244392,19.3677494 23.3032253,19.5667493 C24.5916654,20.0106202 25.9988307,20.0106202 27.2872708,19.5667493 C28.1284669,19.2766816 28.9197445,18.8044785 29.5882492,18.1359738 L33.4043252,14.3198977 C33.6363794,14.0878436 33.8387521,13.8382505 34.0249351,13.579888 C35.7363342,11.2107773 35.5332869,7.86353156 33.4043252,5.73389536 Z" id="Shape" fill="#F0C51A"></path>
                        <path d="M34.0249351,25.5542852 C33.7105827,25.6048784 33.3908337,25.6386072 33.0629898,25.6386072 L27.6663824,25.6386072 C26.720627,25.6386072 25.8274885,25.4132988 25.0274414,25.0233939 C23.8024115,24.4263943 22.807412,23.4313948 22.2104123,22.2063649 C21.9419311,21.6559109 21.7557482,21.060935 21.6646804,20.4342539 C21.43465,20.6062708 21.2106908,20.7897554 21.0022469,20.9981994 C20.7938029,21.2066434 20.6103182,21.4306026 20.4383014,21.660633 C20.0598643,22.1679141 19.7704712,22.7203917 19.5714713,23.2991779 C19.1276004,24.5876179 19.1276004,25.9947833 19.5714713,27.2832233 C19.861539,28.1244195 20.3337421,28.915697 21.0022469,29.5842018 L24.8183229,33.4002778 C25.050377,33.6323319 25.2999701,33.8347047 25.5583327,34.0208876 C27.9274433,35.7316122 31.2753636,35.5292394 33.4043252,33.4002778 C35.5332869,31.2713162 35.7363342,27.9233958 34.0249351,25.5542852 Z" id="Shape" fill="#49B85F"></path>
                        <path d="M19.5714713,11.8516244 C19.2814037,11.0104283 18.8092005,10.2191507 18.1406958,9.55064595 L14.3246198,5.73389536 C14.0925657,5.50184125 13.8429726,5.29946847 13.58461,5.11328551 C11.2154993,3.40256097 7.86757902,3.60493374 5.7386174,5.73389536 C3.60965578,7.86285698 3.407283,11.2094281 5.11733297,13.5785388 C5.42898705,13.5292948 5.74603773,13.4962405 6.07118333,13.4962405 L11.4677907,13.4962405 C14.513501,13.4962405 17.0472082,15.7715851 17.4701673,18.7053158 C17.4728656,18.7032921 17.4755639,18.701943 17.4782622,18.6999192 C17.7082926,18.5279024 17.9322518,18.3444177 18.1406958,18.1359738 C18.3491397,17.9275298 18.5326244,17.7035706 18.7046413,17.4735402 C19.0830783,16.9662591 19.3724714,16.4137814 19.5714713,15.8349953 C20.0153423,14.5465553 20.0153423,13.1393899 19.5714713,11.8516244 Z" id="Shape" fill="#ED5B47"></path>
                        <path d="M18.1406958,20.9981994 C17.9322518,20.7897554 17.7082926,20.6062708 17.4782622,20.4342539 C16.9709811,20.0558168 16.4185034,19.7664238 15.8397173,19.5674239 C14.5512773,19.1235529 13.1441119,19.1235529 11.8556719,19.5674239 C11.0144757,19.8574915 10.2231981,20.3296947 9.55469341,20.9981994 L5.7386174,24.8142754 C5.50656328,25.0463295 5.3041905,25.2959226 5.11800754,25.5542852 C3.407283,27.9233958 3.60965578,31.2713162 5.7386174,33.4002778 C7.86757902,35.5292394 11.2154993,35.7316122 13.58461,34.0208876 C13.5340168,33.7065353 13.500288,33.3867863 13.500288,33.0589424 L13.500288,27.662335 C13.500288,26.7165795 13.7255964,25.823441 14.1155012,25.0233939 C14.7125009,23.7983641 15.7075004,22.8033646 16.9325303,22.2063649 C17.4829843,21.9378837 18.0779602,21.7517007 18.7046413,21.660633 C18.5326244,21.4306026 18.3491397,21.2066434 18.1406958,20.9981994 Z" id="Shape" fill="#8D59A8"></path>
                    </g>
                    <path d="M18.3837946,24.2893855 L21.8112882,24.2893855 C25.0401242,24.2893855 27.6576129,21.7211917 27.6576129,18.553164 C27.6576129,15.3851364 25.0401242,12.8169426 21.8112882,12.8169426 L16.8643981,12.8169426 C15.0016082,12.8169426 13.4915185,14.2985929 13.4915185,16.1263011 L13.4915185,29.0067648 L18.3837946,24.2893855 Z" id="Path-6-Copy-2" fill="#FFFFFF"></path>
                </g>
            </g>
        </g>
    </g>
</svg>