<?xml version="1.0" encoding="UTF-8"?>
<svg width="50px" height="50px" viewBox="0 0 50 50" version="1.1" xmlns="http://www.w3.org/2000/svg" xmlns:xlink="http://www.w3.org/1999/xlink">
    <!-- Generator: Sketch 50.2 (55047) - http://www.bohemiancoding.com/sketch -->
    <title>04/icon/black/svg/pixelfed-icon-black</title>
    <desc>Created with Sketch.</desc>
    <defs></defs>
    <g id="Page-1" stroke="none" stroke-width="1" fill="none" fill-rule="evenodd">
        <g id="icon-copy-6" fill="#000000">
            <path d="M26.1989752,16.1654164 C26.1191375,15.6717246 25.9970712,15.1834955 25.8327784,14.7064947 C25.4032698,13.4577487 24.7071549,12.3267513 23.7688167,11.3882121 L18.8200906,6.43842552 C18.6286052,6.24689918 18.4253978,6.0651186 18.2059577,5.88739016 C18.9457319,2.7779446 21.7493666,0.5 25.0056862,0.5 C28.4355286,0.5 31.3631553,3.02718742 31.9058524,6.39134335 C31.9709938,6.7962157 32.0040616,7.15536036 32.0040616,7.499875 L32.0040616,14.49975 C32.0040616,15.3777768 31.8350727,16.2367131 31.511582,17.0488633 C30.4438253,16.4852131 29.2225744,16.1654164 27.9252137,16.1654164 L26.1989752,16.1654164 Z M23.8073996,31.046185 C23.5834161,32.4635947 23.7071641,33.9247757 24.178594,35.2935053 C24.6081026,36.5422513 25.3042175,37.6732487 26.2425556,38.6117879 L31.1921829,43.5624744 C31.3833579,43.7531345 31.5862081,43.9343531 31.8055418,44.112075 C31.065962,47.2217942 28.2621925,49.5 25.0056862,49.5 C21.5757888,49.5 18.6481233,46.9727317 18.1054939,43.6084951 C18.0403874,43.2038799 18.0073108,42.8446855 18.0073108,42.500125 L18.0073108,35.50025 C18.0073108,35.4938387 18.0073198,35.4874284 18.0073378,35.4810192 L22.6056081,31.046185 L23.8073996,31.046185 Z M35.1468104,25.8777977 C35.1968412,25.8615612 35.2467562,25.8448643 35.2965488,25.8277069 C36.5465838,25.396568 37.6766493,24.7009751 38.6141205,23.763303 L43.5628467,18.8135164 C43.7543612,18.6219608 43.9361291,18.4186771 44.1138454,18.1991515 C47.2222774,18.9383789 49.5,21.7431301 49.5,25.0004375 C49.5,28.4310698 46.9732731,31.3593627 43.6097572,31.9021084 C43.2052287,31.9672288 42.8461113,32.0003125 42.5016246,32.0003125 L35.5032492,32.0003125 C34.4465015,32.0003125 33.4174129,31.75537 32.4642879,31.2907626 C31.9585449,31.0442436 31.4866999,30.7388098 31.0577027,30.3834131 C32.9917905,29.5211241 34.4916783,27.8849489 35.1468104,25.8777977 Z M32.9818651,18.0619641 C33.4869192,16.9416136 33.7536554,15.736333 33.7536554,14.49975 L33.7536554,7.499875 C33.7536554,7.22965928 33.7384248,6.95788037 33.7088174,6.67629632 C36.4300225,5.000963 40.0234106,5.37310623 42.325648,7.67579129 C44.7509518,10.1024315 45.0347176,13.9597464 43.0399586,16.7217074 C42.8019022,17.0521235 42.5708139,17.3300572 42.325697,17.5752267 L37.3769708,22.5250133 C36.8285828,23.0735188 36.1967915,23.5184213 35.5026804,23.8530318 C35.505411,23.7709507 35.506787,23.6885334 35.506787,23.6058007 C35.506787,21.4032822 34.5316098,19.4242869 32.9818651,18.0619641 Z M29.1180777,30.9546188 C29.8495788,31.7387598 30.723016,32.3887119 31.6978107,32.8638651 C32.8860975,33.4431037 34.176657,33.7502812 35.5032492,33.7502812 L42.5016246,33.7502812 C42.7718182,33.7502812 43.043575,33.7350433 43.3251385,33.7054219 C45.0005544,36.4268542 44.6282644,40.021099 42.325697,42.3241597 C39.9008053,44.7495711 36.0434832,45.0332243 33.2816352,43.0384785 C32.9514226,42.8004669 32.6735484,42.5693291 32.4284315,42.3241597 L27.4797053,37.3743731 C26.7330644,36.6275722 26.1784347,35.7261305 25.8326956,34.723272 C25.4247205,33.5387745 25.3418769,32.266466 25.5842066,31.046185 L27.9252137,31.046185 C28.3310733,31.046185 28.7294844,31.0148879 29.1180777,30.9546188 Z M18.0361092,17.005126 C16.9498565,16.5196511 15.7507833,16.2505937 14.4967508,16.2505937 L7.49837538,16.2505937 C7.232029,16.2505937 6.96418507,16.2653384 6.68632324,16.2940088 C5.0111787,13.5720997 5.38321091,9.97879809 7.68567533,7.67584029 C10.1105671,5.25042891 13.9678891,4.96677571 16.7297371,6.96152155 C17.0599498,7.19953306 17.337824,7.43067088 17.5829409,7.67584029 L22.5316124,12.6264472 C23.2782947,13.3732895 23.8329179,14.2747125 24.1786584,15.2775495 C24.2790442,15.5688604 24.3597451,15.8655119 24.4207608,16.1654164 L20.6352393,16.1654164 C19.6618729,16.1654164 18.7627665,16.4774398 18.0361092,17.005126 Z M16.2612547,35.2537259 C16.258899,35.3357513 16.257717,35.4179313 16.257717,35.50025 L16.257717,42.500125 C16.257717,42.7703407 16.2729476,43.0421196 16.3025549,43.3237037 C13.5813306,44.9990489 9.98791079,44.6268885 7.68567533,42.3241597 C5.26078356,39.8987483 4.97719112,36.0405997 6.97150962,33.2781599 C7.20947014,32.9478765 7.44055844,32.6699428 7.68567533,32.4247733 L12.6344015,27.4749867 C13.3810424,26.7281858 14.282291,26.1734373 15.2849346,25.8276241 C15.6048854,25.7173766 15.9312445,25.6308666 16.2612547,25.5680951 L16.2612547,35.2537259 Z M16.2612547,23.7931301 C15.7377606,23.8724201 15.2199939,23.9990983 14.7148236,24.1731681 C13.4647886,24.604307 12.334723,25.2998999 11.3972518,26.237572 L6.44852566,31.1873586 C6.25392808,31.3819979 6.06939348,31.588746 5.88894736,31.812338 C2.78032488,31.0741675 0.5,28.2622334 0.5,25.0004375 C0.5,21.5662743 3.03179045,18.6360332 6.40961211,18.0974198 C6.55156249,18.0732434 7.23969074,18.0005625 7.49837538,18.0005625 L14.4967508,18.0005625 C15.2999569,18.0005625 16.0753514,18.1390919 16.7989258,18.3943464 C16.4561913,19.0066903 16.2612547,19.7099771 16.2612547,20.4579458 L16.2612547,23.7931301 Z" id="Combined-Shape"></path>
        </g>
    </g>
</svg>