<?xml version="1.0" encoding="UTF-8"?>
<svg width="50px" height="50px" viewBox="0 0 50 50" version="1.1" xmlns="http://www.w3.org/2000/svg" xmlns:xlink="http://www.w3.org/1999/xlink">
    <!-- Generator: Sketch 50.2 (55047) - http://www.bohemiancoding.com/sketch -->
    <title>04/icon/color/svg/pixelfed-icon-color</title>
    <desc>Created with Sketch.</desc>
    <defs></defs>
    <g id="Page-1" stroke="none" stroke-width="1" fill="none" fill-rule="evenodd">
        <g id="icon-copy-8" fill-rule="nonzero">
            <g id="photos" transform="translate(0.500000, 0.500000)">
                <g id="Group-3">
                    <g id="Group-2">
                        <path d="M21.8377091,23.3816448 C21.8883023,23.7349539 21.9237176,24.0924792 21.9237176,24.4592798 C21.9237176,28.6332184 18.5086769,32.048259 14.3347384,32.048259 L7.58897916,32.048259 C3.41504062,32.048259 0,28.6332184 0,24.4592798 C0,20.6917733 2.78515535,17.5516224 6.39666621,16.9748599 C6.39666621,16.9748599 6.39750943,16.9757032 6.39750943,16.9757032 C6.39750943,16.9748599 6.39666621,16.9740167 6.39666621,16.9740167 C6.78623381,16.9116184 7.18254716,16.8703007 7.58897916,16.8703007 L14.3347384,16.8703007 C18.1418763,16.8703007 21.3090103,19.7144814 21.8377091,23.3816448 Z" id="Combined-Shape" fill="#BF3F8A"></path>
                        <path d="M31.9479158,6.39160689 C31.3660941,2.78515535 28.2284728,0.00505931944 24.4643391,0.00505931944 C20.7002055,0.00505931944 17.5625842,2.78515535 16.9807625,6.39160689 C17.3037157,6.62433559 17.6157071,6.87730156 17.9057747,7.16736921 L22.6758697,11.9374642 C23.5115007,12.7730951 24.1025978,13.7621921 24.4643391,14.8136873 C25.0191778,16.4242373 25.0191778,18.1831941 24.4643391,19.7937441 C24.2147461,20.5172268 23.8538479,21.2078239 23.3808016,21.8419252 C23.7357971,21.8933617 24.095852,21.9296201 24.4643391,21.9296201 C24.8328262,21.9296201 25.1928811,21.8942049 25.5478767,21.8419252 C26.331228,21.7280906 27.074948,21.4953619 27.7630154,21.1597603 C29.2943028,20.4135107 30.5380521,19.1697614 31.2843018,17.638474 C31.7716829,16.6384152 32.0533183,15.521992 32.0533183,14.3397977 L32.0533183,7.59403848 C32.0533183,7.1842336 32.0111573,6.78454737 31.9479158,6.39160689 Z" id="Shape" fill="#ED8611"></path>
                        <path d="M31.0229036,41.7503472 L26.2528086,36.9802522 C25.4171776,36.1446213 24.8260805,35.1555243 24.4643391,34.1040291 C23.9095005,32.4934791 23.9095005,30.7345224 24.4643391,29.1239724 C24.7139322,28.4004897 25.0748304,27.7098926 25.5478767,27.0757912 C25.1928811,27.0243548 24.8328262,26.9880963 24.4643391,26.9880963 C24.095852,26.9880963 23.7357971,27.0235116 23.3808016,27.0757912 C22.5974503,27.1896259 21.8537303,27.4223546 21.1656629,27.7579561 C19.6343755,28.5042057 18.3906262,29.7479551 17.6443765,31.2792424 C17.1569954,32.2793012 16.87536,33.3957244 16.87536,34.5779187 L16.87536,41.323678 C16.87536,41.7334828 16.917521,42.1331691 16.9807625,42.5261095 C17.5625842,46.1325611 20.7002055,48.9126571 24.4643391,48.9126571 C28.2284728,48.9126571 31.3660941,46.1325611 31.9479158,42.5261095 C31.6249626,42.2925376 31.3129712,42.0395717 31.0229036,41.7503472 Z" id="Shape" fill="#2E86DD"></path>
                        <path d="M42.5311689,16.9757032 C42.2984402,17.2986564 42.0454742,17.6106477 41.7554066,17.9007154 L36.9853115,22.6708104 C36.1496806,23.5064413 35.1605837,24.0966953 34.1090884,24.4592798 C32.4985384,25.0141185 30.7395817,25.0141185 29.1290317,24.4592798 C28.405549,24.2096867 27.7149519,23.8487886 27.0808505,23.3757422 C27.0294141,23.7307378 26.9939989,24.0907927 26.9939989,24.4592798 C26.9939989,24.8277669 27.0294141,25.1878218 27.0808505,25.5428174 C27.1946852,26.3261687 27.4274139,27.0698887 27.7630154,27.7579561 C28.509265,29.2892435 29.7530144,30.5329928 31.2843018,31.2792424 C32.2843606,31.7666235 33.4007837,32.048259 34.582978,32.048259 L41.3287373,32.048259 C41.7385422,32.048259 42.1382284,32.006098 42.5311689,31.9428565 C46.1376204,31.3610348 48.9177164,28.2234135 48.9177164,24.4592798 C48.9177164,20.6951462 46.1376204,17.5566817 42.5311689,16.9757032 Z" id="Shape" fill="#9EE85D"></path>
                        <path d="M41.7554066,7.16736921 C39.0942045,4.50616718 34.9093041,4.25320121 31.9479158,6.39160689 C32.0111573,6.78454737 32.0533183,7.1842336 32.0533183,7.59403848 L32.0533183,14.3397977 C32.0533183,15.521992 31.7716829,16.6384152 31.2843018,17.638474 C30.5380521,19.1697614 29.2943028,20.4135107 27.7630154,21.1597603 C27.074948,21.4953619 26.331228,21.7280906 25.5478767,21.8419252 C25.7628978,22.1294632 25.9922536,22.4094122 26.2528086,22.6699672 C26.5133635,22.9305221 26.7933125,23.159878 27.0808505,23.374899 C27.7149519,23.8479454 28.405549,24.2096867 29.1290317,24.4584366 C30.7395817,25.0132753 32.4985384,25.0132753 34.1090884,24.4584366 C35.1605837,24.095852 36.1496806,23.5055981 36.9853115,22.6699672 L41.7554066,17.8998722 C42.0454742,17.6098045 42.2984402,17.2978132 42.5311689,16.9748599 C44.6704178,14.0134716 44.4166086,9.82941445 41.7554066,7.16736921 Z" id="Shape" fill="#F0C51A"></path>
                        <path d="M42.5311689,31.9428565 C42.1382284,32.006098 41.7385422,32.048259 41.3287373,32.048259 L34.582978,32.048259 C33.4007837,32.048259 32.2843606,31.7666235 31.2843018,31.2792424 C29.7530144,30.5329928 28.509265,29.2892435 27.7630154,27.7579561 C27.4274139,27.0698887 27.1946852,26.3261687 27.0808505,25.5428174 C26.7933125,25.7578385 26.5133635,25.9871943 26.2528086,26.2477493 C25.9922536,26.5083042 25.7628978,26.7882532 25.5478767,27.0757912 C25.0748304,27.7098926 24.713089,28.4004897 24.4643391,29.1239724 C23.9095005,30.7345224 23.9095005,32.4934791 24.4643391,34.1040291 C24.8269237,35.1555243 25.4171776,36.1446213 26.2528086,36.9802522 L31.0229036,41.7503472 C31.3129712,42.0404149 31.6249626,42.2933809 31.9479158,42.5261095 C34.9093041,44.6645152 39.0942045,44.4115493 41.7554066,41.7503472 C44.4166086,39.0891452 44.6704178,34.9042448 42.5311689,31.9428565 Z" id="Shape" fill="#49B85F"></path>
                        <path d="M24.4643391,14.8145305 C24.1017546,13.7630353 23.5115007,12.7739384 22.6758697,11.9383074 L17.9057747,7.16736921 C17.6157071,6.87730156 17.3037157,6.62433559 16.9807625,6.39160689 C14.0193742,4.25320121 9.83447377,4.50616718 7.17327175,7.16736921 C4.51206972,9.82857123 4.25910375,14.0117852 6.39666621,16.9731735 C6.78623381,16.9116184 7.18254716,16.8703007 7.58897916,16.8703007 L14.3347384,16.8703007 C18.1418763,16.8703007 21.3090103,19.7144814 21.8377091,23.3816448 C21.841082,23.3791151 21.8444549,23.3774287 21.8478278,23.374899 C22.1353658,23.159878 22.4153148,22.9305221 22.6758697,22.6699672 C22.9364247,22.4094122 23.1657805,22.1294632 23.3808016,21.8419252 C23.8538479,21.2078239 24.2155893,20.5172268 24.4643391,19.7937441 C25.0191778,18.1831941 25.0191778,16.4242373 24.4643391,14.8145305 Z" id="Shape" fill="#ED5B47"></path>
                        <path d="M22.6758697,26.2477493 C22.4153148,25.9871943 22.1353658,25.7578385 21.8478278,25.5428174 C21.2137264,25.069771 20.5231293,24.7080297 19.7996466,24.4592798 C18.1890966,23.9044411 16.4301399,23.9044411 14.8195899,24.4592798 C13.7680946,24.8218644 12.7789977,25.4121183 11.9433668,26.2477493 L7.17327175,31.0178443 C6.8832041,31.3079119 6.63023813,31.6199033 6.39750943,31.9428565 C4.25910375,34.9042448 4.51206972,39.0891452 7.17327175,41.7503472 C9.83447377,44.4115493 14.0193742,44.6645152 16.9807625,42.5261095 C16.917521,42.1331691 16.87536,41.7334828 16.87536,41.323678 L16.87536,34.5779187 C16.87536,33.3957244 17.1569954,32.2793012 17.6443765,31.2792424 C18.3906262,29.7479551 19.6343755,28.5042057 21.1656629,27.7579561 C21.8537303,27.4223546 22.5974503,27.1896259 23.3808016,27.0757912 C23.1657805,26.7882532 22.9364247,26.5083042 22.6758697,26.2477493 Z" id="Shape" fill="#8D59A8"></path>
                    </g>
                    <path d="M22.9797433,30.3617318 L27.2641103,30.3617318 C31.3001553,30.3617318 34.5720162,27.1514896 34.5720162,23.191455 C34.5720162,19.2314205 31.3001553,16.0211782 27.2641103,16.0211782 L21.0804977,16.0211782 C18.7520102,16.0211782 16.8643981,17.8732411 16.8643981,20.1578764 L16.8643981,36.258456 L22.9797433,30.3617318 Z" id="Path-6-Copy-2" fill="#FFFFFF"></path>
                </g>
            </g>
        </g>
    </g>
</svg>